<svg xmlns="http://www.w3.org/2000/svg" xmlns:xlink="http://www.w3.org/1999/xlink" viewBox="0 0 283.38 273.34"><defs><style>.cls-1{fill:none;}.cls-2{clip-path:url(#clip-path);}.cls-3{fill:#fec418;}.cls-4{fill:#fec417;}.cls-5{fill:#fec316;}.cls-6{clip-path:url(#clip-path-2);}.cls-7{fill:#fae158;}.cls-8{fill:#fae057;}.cls-9{clip-path:url(#clip-path-3);}.cls-10{fill:#fae159;}.cls-11{clip-path:url(#clip-path-4);}.cls-12{fill:#f9e561;}.cls-13{fill:#f9e560;}.cls-14{fill:#f9e45f;}.cls-15{fill:#f9e45e;}.cls-16{fill:#f9e35d;}.cls-17{fill:#f9e35c;}.cls-18{fill:#f9e25b;}.cls-19{fill:#f9e25a;}.cls-20{fill:#fae056;}.cls-21{fill:#fae055;}.cls-22{fill:#fadf54;}.cls-23{fill:#fadf53;}.cls-24{fill:#fade52;}.cls-25{fill:#fade51;}.cls-26{fill:#fadd50;}.cls-27{fill:#fadd4f;}.cls-28{fill:#fadc4e;}.cls-29{fill:#fadc4d;}.cls-30{fill:#fadb4c;}.cls-31{fill:#fadb4b;}.cls-32{fill:#fbdb4a;}.cls-33{fill:#fbda49;}.cls-34{fill:#fbda48;}.cls-35{fill:#fbd947;}.cls-36{fill:#fbd946;}.cls-37{fill:#fbd845;}.cls-38{fill:#fbd844;}.cls-39{fill:#fbd743;}.cls-40{fill:#fbd742;}.cls-41{fill:#fbd641;}.cls-42{fill:#fbd640;}.cls-43{fill:#fbd63f;}.cls-44{fill:#fbd53e;}.cls-45{fill:#fbd53d;}.cls-46{fill:#fbd43c;}.cls-47{fill:#fcd43b;}.cls-48{fill:#fcd33a;}.cls-49{fill:#fcd339;}.cls-50{fill:#fcd238;}.cls-51{fill:#fcd237;}.cls-52{fill:#fcd136;}.cls-53{fill:#fcd135;}.cls-54{fill:#fcd134;}.cls-55{fill:#fcd032;}.cls-56{fill:#fcd031;}.cls-57{fill:#fccf30;}.cls-58{fill:#fccf2f;}.cls-59{fill:#fcce2e;}.cls-60{fill:#fcce2d;}.cls-61{fill:#fccd2c;}.cls-62{fill:#fdcd2b;}.cls-63{fill:#fdcc2a;}.cls-64{fill:#fdcc29;}.cls-65{fill:#fdcb28;}.cls-66{fill:#fdcb27;}.cls-67{fill:#fdcb26;}.cls-68{fill:#fdca25;}.cls-69{fill:#fdca24;}.cls-70{fill:#fdc923;}.cls-71{fill:#fdc922;}.cls-72{fill:#fdc821;}.cls-73{fill:#fdc820;}.cls-74{fill:#fdc71f;}.cls-75{fill:#fdc71e;}.cls-76{fill:#fdc61d;}.cls-77{fill:#fec61c;}.cls-78{fill:#fec61b;}.cls-79{fill:#fec51a;}.cls-80{fill:#fec519;}.cls-81{fill:#fec315;}.cls-82{clip-path:url(#clip-path-5);}.cls-83{clip-path:url(#clip-path-6);}.cls-84{clip-path:url(#clip-path-7);}.cls-85{clip-path:url(#clip-path-8);}.cls-86{fill:#fec214;}.cls-87{fill:#fec213;}.cls-88{fill:#fec112;}.cls-89{fill:#fec111;}.cls-90{fill:#fec110;}.cls-91{fill:#fec00f;}.cls-92{fill:#fec00e;}.cls-93{fill:#ffbf0d;}.cls-94{fill:#ffbf0c;}.cls-95{fill:#ffbe0b;}.cls-96{clip-path:url(#clip-path-9);}.cls-97{clip-path:url(#clip-path-10);}.cls-98{fill:#ffbe0a;}.cls-99{fill:#ffbd09;}.cls-100{fill:#ffbd08;}.cls-101{fill:#ffbc07;}.cls-102{fill:#ffbc06;}</style><clipPath id="clip-path" transform="translate(5.02)"><path class="cls-1" d="M24.12,217.56a73.35,73.35,0,0,1-4.7-7.15C21.8,214.16,23.88,217.21,24.12,217.56Z"/></clipPath><clipPath id="clip-path-2" transform="translate(5.02)"><path class="cls-1" d="M192.66,34.63c-.25.74-.52,1.49-.79,2.23"/></clipPath><clipPath id="clip-path-3" transform="translate(5.02)"><path class="cls-1" d="M209.25,43.36l-.33.77"/></clipPath><clipPath id="clip-path-4" transform="translate(5.02)"><path class="cls-1" d="M219.81,48.78l-10.89-4.65C160.49,160.7,76.72,193.18,37.14,190.77-5,188.19.21,149.94.21,149.94S5,184.16,45,179.25c40.74-5,107.12-41.46,146.84-142.39l-11.54-4.92,17.17-12.89,17.17-12.9,2.58,21.32Z"/></clipPath><clipPath id="clip-path-5" transform="translate(5.02)"><path class="cls-1" d="M76.72,86.22v77.34a126,126,0,0,1-31.17,10.21V86.22Z"/></clipPath><clipPath id="clip-path-6" transform="translate(5.02)"><path class="cls-1" d="M116.92,47.7V137c-10.46,9.11-18.93,16.35-29.11,22V47.7Z"/></clipPath><clipPath id="clip-path-7" transform="translate(5.02)"><path class="cls-1" d="M160.49.5V85.4a242.88,242.88,0,0,1-31.17,39.84V.5Z"/></clipPath><clipPath id="clip-path-8" transform="translate(5.02)"><path class="cls-1" d="M140,262.33c-66.79,11-103.32-27.56-115.87-44.73l0,0c-.24-.35-2.32-3.4-4.7-7.15a.13.13,0,0,1,0,0,124.55,124.55,0,0,1-6.46-11.05c.39.32,15.78,13.1,50.63,7.15h0c69-14.51,105.14-64.87,111.53-74.54l-8.67-6,17.75-8.36,17.74-8.37-1.63,19.55-1.62,19.56-9.1-6.32c-49,74.74-127.19,79.67-127.19,79.67,50.17,42.64,115.72,9.77,139.11-14.47C219,189.07,229.87,165.47,231,140.34c1.91-42.9-23.83-70.8-23.83-70.8l2.34-4.68C278.36,136.54,225.11,248.3,140,262.33Z"/></clipPath><clipPath id="clip-path-9" transform="translate(5.02)"><path class="cls-1" d="M242.47,7.15h5.36a5.31,5.31,0,0,1,2.19.38,2.75,2.75,0,0,1,1.64,2.74,3.14,3.14,0,0,1-.43,1.71A3.14,3.14,0,0,1,250,13a2.38,2.38,0,0,1,1,.73,2.63,2.63,0,0,1,.39,1.46l0,1.56a5.68,5.68,0,0,0,.11,1,1,1,0,0,0,.51.71v.26h-1.93a1.55,1.55,0,0,1-.12-.38,6,6,0,0,1-.08-.92l-.1-1.93A1.65,1.65,0,0,0,249,14a3.55,3.55,0,0,0-1.42-.21H244v5h-1.57Zm5.2,5.31a3.08,3.08,0,0,0,1.75-.44,1.81,1.81,0,0,0,.64-1.6,1.72,1.72,0,0,0-.9-1.69,2.92,2.92,0,0,0-1.29-.23H244v4Z"/></clipPath><clipPath id="clip-path-10" transform="translate(5.02)"><path class="cls-1" d="M247.05,27.54a13.77,13.77,0,1,1,13.77-13.77A13.79,13.79,0,0,1,247.05,27.54Zm0-26.54a12.77,12.77,0,1,0,12.77,12.77A12.79,12.79,0,0,0,247.05,1Z"/></clipPath></defs><g id="Layer_2" data-name="Layer 2"><g id="Layer_1-2" data-name="Layer 1"><g class="cls-2"><polygon class="cls-3" points="29.14 213.7 26.19 210.41 29.14 210.41 29.14 213.7"/><polygon class="cls-4" points="27.4 217.56 24.44 214.28 24.44 210.41 26.19 210.41 29.14 213.7 29.14 217.56 27.4 217.56"/><polygon class="cls-5" points="24.44 214.28 27.4 217.56 24.44 217.56 24.44 214.28"/></g><g class="cls-6"><polygon class="cls-7" points="197.68 35.49 196.91 34.63 197.68 34.63 197.68 35.49"/><polygon class="cls-8" points="196.91 34.63 197.68 35.49 197.68 36.87 196.89 36.87 196.89 34.63 196.91 34.63"/></g><g class="cls-9"><rect class="cls-10" x="213.94" y="43.36" width="0.33" height="0.78"/></g><g class="cls-11"><polygon class="cls-12" points="224.84 7.65 223.49 6.15 224.84 6.15 224.84 7.65"/><polygon class="cls-12" points="224.84 13.45 218.27 6.15 223.49 6.15 224.84 7.65 224.84 13.45"/><polygon class="cls-13" points="224.84 19.25 213.05 6.15 218.27 6.15 224.84 13.45 224.84 19.25"/><polygon class="cls-14" points="224.84 25.06 207.83 6.15 213.05 6.15 224.84 19.25 224.84 25.06"/><polygon class="cls-15" points="224.84 30.86 202.61 6.15 207.83 6.15 224.84 25.06 224.84 30.86"/><polygon class="cls-16" points="224.84 36.67 197.4 6.15 202.61 6.15 224.84 30.86 224.84 36.67"/><polygon class="cls-17" points="224.84 42.47 192.18 6.15 197.4 6.15 224.84 36.67 224.84 42.47"/><polygon class="cls-18" points="224.84 48.27 186.96 6.15 192.18 6.15 224.84 42.47 224.84 48.27"/><polygon class="cls-19" points="224.84 54.08 181.74 6.15 186.96 6.15 224.84 48.27 224.84 54.08"/><polygon class="cls-10" points="224.84 59.88 176.52 6.15 181.74 6.15 224.84 54.08 224.84 59.88"/><polygon class="cls-7" points="224.84 65.69 171.3 6.15 176.52 6.15 224.84 59.88 224.84 65.69"/><polygon class="cls-8" points="224.84 71.49 166.08 6.15 171.3 6.15 224.84 65.69 224.84 71.49"/><polygon class="cls-20" points="224.84 77.3 161.44 6.79 162.16 6.15 166.08 6.15 224.84 71.49 224.84 77.3"/><polygon class="cls-21" points="224.84 83.1 158.56 9.39 161.44 6.79 224.84 77.3 224.84 83.1"/><polygon class="cls-22" points="224.84 88.9 155.67 11.98 158.56 9.39 224.84 83.1 224.84 88.9"/><polygon class="cls-23" points="224.84 94.71 152.78 14.58 155.67 11.98 224.84 88.9 224.84 94.71"/><polygon class="cls-24" points="224.84 100.51 149.9 17.17 152.78 14.58 224.84 94.71 224.84 100.51"/><polygon class="cls-25" points="224.84 106.31 147.01 19.77 149.9 17.17 224.84 100.51 224.84 106.31"/><polygon class="cls-26" points="224.84 110.05 223.81 110.97 144.13 22.36 147.01 19.77 224.84 106.31 224.84 110.05"/><rect class="cls-27" x="175.56" y="8.38" width="3.88" height="119.17" transform="translate(5.09 136.11) rotate(-41.96)"/><rect class="cls-28" x="172.68" y="10.98" width="3.88" height="119.17" transform="translate(2.61 134.84) rotate(-41.96)"/><rect class="cls-29" x="169.79" y="13.57" width="3.88" height="119.17" transform="translate(0.14 133.58) rotate(-41.96)"/><rect class="cls-30" x="166.91" y="16.17" width="3.88" height="119.17" transform="translate(-2.33 132.32) rotate(-41.96)"/><rect class="cls-31" x="164.02" y="18.76" width="3.88" height="119.17" transform="translate(-4.81 131.05) rotate(-41.96)"/><rect class="cls-32" x="161.13" y="21.35" width="3.88" height="119.17" transform="translate(-7.28 129.79) rotate(-41.96)"/><rect class="cls-33" x="158.25" y="23.95" width="3.88" height="119.17" transform="translate(-9.76 128.52) rotate(-41.96)"/><rect class="cls-34" x="155.36" y="26.54" width="3.88" height="119.17" transform="translate(-12.23 127.26) rotate(-41.96)"/><rect class="cls-35" x="152.48" y="29.14" width="3.88" height="119.17" transform="translate(-14.71 125.99) rotate(-41.96)"/><rect class="cls-36" x="149.59" y="31.73" width="3.88" height="119.17" transform="translate(-17.18 124.73) rotate(-41.96)"/><rect class="cls-37" x="146.71" y="34.33" width="3.88" height="119.17" transform="translate(-19.66 123.47) rotate(-41.96)"/><rect class="cls-38" x="143.82" y="36.92" width="3.88" height="119.17" transform="translate(-22.13 122.2) rotate(-41.96)"/><rect class="cls-39" x="140.93" y="39.52" width="3.88" height="119.17" transform="translate(-24.61 120.94) rotate(-41.96)"/><rect class="cls-40" x="138.05" y="42.11" width="3.88" height="119.17" transform="translate(-27.08 119.67) rotate(-41.96)"/><rect class="cls-41" x="135.16" y="44.71" width="3.88" height="119.17" transform="translate(-29.56 118.41) rotate(-41.96)"/><rect class="cls-42" x="132.28" y="47.3" width="3.88" height="119.17" transform="translate(-32.03 117.15) rotate(-41.96)"/><rect class="cls-43" x="129.39" y="49.9" width="3.88" height="119.17" transform="translate(-34.51 115.88) rotate(-41.96)"/><rect class="cls-44" x="126.51" y="52.49" width="3.88" height="119.17" transform="translate(-36.98 114.62) rotate(-41.96)"/><rect class="cls-45" x="123.62" y="55.09" width="3.88" height="119.17" transform="translate(-39.46 113.35) rotate(-41.96)"/><rect class="cls-46" x="120.74" y="57.68" width="3.88" height="119.17" transform="translate(-41.93 112.09) rotate(-41.96)"/><rect class="cls-47" x="117.85" y="60.27" width="3.88" height="119.17" transform="translate(-44.41 110.83) rotate(-41.96)"/><rect class="cls-48" x="114.96" y="62.87" width="3.88" height="119.17" transform="translate(-46.88 109.56) rotate(-41.96)"/><rect class="cls-49" x="112.08" y="65.46" width="3.88" height="119.17" transform="translate(-49.35 108.3) rotate(-41.96)"/><rect class="cls-50" x="109.19" y="68.06" width="3.88" height="119.17" transform="translate(-51.83 107.03) rotate(-41.96)"/><rect class="cls-51" x="106.31" y="70.65" width="3.88" height="119.17" transform="translate(-54.3 105.77) rotate(-41.96)"/><rect class="cls-52" x="103.42" y="73.25" width="3.88" height="119.17" transform="translate(-56.78 104.5) rotate(-41.96)"/><rect class="cls-53" x="100.54" y="75.84" width="3.88" height="119.17" transform="translate(-59.25 103.24) rotate(-41.96)"/><rect class="cls-54" x="97.65" y="78.44" width="3.88" height="119.17" transform="translate(-61.73 101.98) rotate(-41.96)"/><rect class="cls-55" x="94.76" y="81.03" width="3.88" height="119.17" transform="translate(-64.2 100.71) rotate(-41.96)"/><rect class="cls-56" x="91.88" y="83.63" width="3.88" height="119.17" transform="translate(-66.68 99.45) rotate(-41.96)"/><rect class="cls-57" x="88.99" y="86.22" width="3.88" height="119.17" transform="translate(-69.15 98.18) rotate(-41.96)"/><polygon class="cls-58" points="134.35 191.41 132.38 193.18 130.73 193.18 51.79 105.39 54.67 102.8 134.35 191.41"/><polygon class="cls-59" points="125.51 193.18 48.9 107.99 51.79 105.39 130.73 193.18 125.51 193.18"/><polygon class="cls-60" points="120.29 193.18 46.02 110.58 48.9 107.99 125.51 193.18 120.29 193.18"/><polygon class="cls-61" points="115.07 193.18 43.13 113.17 46.02 110.58 120.29 193.18 115.07 193.18"/><polygon class="cls-62" points="109.85 193.18 40.24 115.77 43.13 113.17 115.07 193.18 109.85 193.18"/><polygon class="cls-63" points="104.63 193.18 37.36 118.36 40.24 115.77 109.85 193.18 104.63 193.18"/><polygon class="cls-64" points="99.41 193.18 34.47 120.96 37.36 118.36 104.63 193.18 99.41 193.18"/><polygon class="cls-65" points="94.19 193.18 31.59 123.55 34.47 120.96 99.41 193.18 94.19 193.18"/><polygon class="cls-66" points="88.98 193.18 28.7 126.15 31.59 123.55 94.19 193.18 88.98 193.18"/><polygon class="cls-67" points="83.76 193.18 25.82 128.74 28.7 126.15 88.98 193.18 83.76 193.18"/><polygon class="cls-68" points="78.54 193.18 22.93 131.34 25.82 128.74 83.76 193.18 78.54 193.18"/><polygon class="cls-69" points="73.32 193.18 20.04 133.93 22.93 131.34 78.54 193.18 73.32 193.18"/><polygon class="cls-70" points="68.1 193.18 17.16 136.53 20.04 133.93 73.32 193.18 68.1 193.18"/><polygon class="cls-71" points="62.88 193.18 14.27 139.12 17.16 136.53 68.1 193.18 62.88 193.18"/><polygon class="cls-72" points="57.66 193.18 11.39 141.72 14.27 139.12 62.88 193.18 57.66 193.18"/><polygon class="cls-73" points="52.45 193.18 8.5 144.31 11.39 141.72 57.66 193.18 52.45 193.18"/><polygon class="cls-74" points="47.23 193.18 5.62 146.91 8.5 144.31 52.45 193.18 47.23 193.18"/><polygon class="cls-75" points="42.01 193.18 2.73 149.5 5.62 146.91 47.23 193.18 42.01 193.18"/><polygon class="cls-76" points="36.79 193.18 0 152.27 0 151.96 2.73 149.5 42.01 193.18 36.79 193.18"/><polygon class="cls-77" points="31.57 193.18 0 158.07 0 152.27 36.79 193.18 31.57 193.18"/><polygon class="cls-78" points="26.35 193.18 0 163.88 0 158.07 31.57 193.18 26.35 193.18"/><polygon class="cls-79" points="21.13 193.18 0 169.68 0 163.88 26.35 193.18 21.13 193.18"/><polygon class="cls-80" points="15.91 193.18 0 175.49 0 169.68 21.13 193.18 15.91 193.18"/><polygon class="cls-3" points="10.7 193.18 0 181.29 0 175.49 15.91 193.18 10.7 193.18"/><polygon class="cls-4" points="5.48 193.18 0 187.09 0 181.29 10.7 193.18 5.48 193.18"/><polygon class="cls-5" points="0.26 193.18 0 192.9 0 187.09 5.48 193.18 0.26 193.18"/><polygon class="cls-81" points="0 192.9 0.26 193.18 0 193.18 0 192.9"/></g><g class="cls-82"><polygon class="cls-49" points="81.74 86.47 81.52 86.22 81.74 86.22 81.74 86.47"/><polygon class="cls-50" points="81.74 92.28 76.3 86.22 81.52 86.22 81.74 86.47 81.74 92.28"/><polygon class="cls-51" points="81.74 98.08 71.08 86.22 76.3 86.22 81.74 92.28 81.74 98.08"/><polygon class="cls-52" points="81.74 103.88 65.86 86.22 71.08 86.22 81.74 98.08 81.74 103.88"/><polygon class="cls-53" points="81.74 109.69 60.64 86.22 65.86 86.22 81.74 103.88 81.74 109.69"/><polygon class="cls-54" points="81.74 115.49 55.42 86.22 60.64 86.22 81.74 109.69 81.74 115.49"/><polygon class="cls-55" points="81.74 121.3 50.57 86.63 50.57 86.22 55.42 86.22 81.74 115.49 81.74 121.3"/><polygon class="cls-56" points="81.74 127.1 50.57 92.43 50.57 86.63 81.74 121.3 81.74 127.1"/><polygon class="cls-57" points="81.74 132.9 50.57 98.24 50.57 92.43 81.74 127.1 81.74 132.9"/><polygon class="cls-58" points="81.74 138.71 50.57 104.04 50.57 98.24 81.74 132.9 81.74 138.71"/><polygon class="cls-59" points="81.74 144.51 50.57 109.84 50.57 104.04 81.74 138.71 81.74 144.51"/><polygon class="cls-60" points="81.74 150.32 50.57 115.65 50.57 109.84 81.74 144.51 81.74 150.32"/><polygon class="cls-61" points="81.74 156.12 50.57 121.45 50.57 115.65 81.74 150.32 81.74 156.12"/><polygon class="cls-62" points="81.74 161.92 50.57 127.26 50.57 121.45 81.74 156.12 81.74 161.92"/><polygon class="cls-63" points="81.74 166.25 81.01 166.91 50.57 133.06 50.57 127.26 81.74 161.92 81.74 166.25"/><polygon class="cls-64" points="81.01 166.91 78.12 169.5 50.57 138.86 50.57 133.06 81.01 166.91"/><polygon class="cls-65" points="78.12 169.5 75.24 172.1 50.57 144.67 50.57 138.86 78.12 169.5"/><polygon class="cls-66" points="75.24 172.1 73.37 173.78 71.53 173.78 50.57 150.47 50.57 144.67 75.24 172.1"/><polygon class="cls-67" points="66.31 173.78 50.57 156.28 50.57 150.47 71.53 173.78 66.31 173.78"/><polygon class="cls-68" points="61.09 173.78 50.57 162.08 50.57 156.28 66.31 173.78 61.09 173.78"/><polygon class="cls-69" points="55.87 173.78 50.57 167.88 50.57 162.08 61.09 173.78 55.87 173.78"/><polygon class="cls-70" points="50.65 173.78 50.57 173.69 50.57 167.88 55.87 173.78 50.65 173.78"/><polygon class="cls-71" points="50.57 173.69 50.65 173.78 50.57 173.78 50.57 173.69"/></g><g class="cls-83"><polygon class="cls-35" points="121.94 49.92 119.95 47.7 121.94 47.7 121.94 49.92"/><polygon class="cls-36" points="121.94 55.73 114.73 47.7 119.95 47.7 121.94 49.92 121.94 55.73"/><polygon class="cls-37" points="121.94 61.53 109.51 47.7 114.73 47.7 121.94 55.73 121.94 61.53"/><polygon class="cls-38" points="121.94 67.34 104.29 47.7 109.51 47.7 121.94 61.53 121.94 67.34"/><polygon class="cls-39" points="121.94 73.14 99.07 47.7 104.29 47.7 121.94 67.34 121.94 73.14"/><polygon class="cls-40" points="121.94 78.94 93.85 47.7 99.07 47.7 121.94 73.14 121.94 78.94"/><polygon class="cls-41" points="121.94 84.75 92.83 52.37 92.83 47.7 93.85 47.7 121.94 78.94 121.94 84.75"/><polygon class="cls-42" points="121.94 90.55 92.83 58.18 92.83 52.37 121.94 84.75 121.94 90.55"/><polygon class="cls-43" points="121.94 96.36 92.83 63.98 92.83 58.18 121.94 90.55 121.94 96.36"/><polygon class="cls-44" points="121.94 102.16 92.83 69.78 92.83 63.98 121.94 96.36 121.94 102.16"/><polygon class="cls-45" points="121.94 107.96 92.83 75.59 92.83 69.78 121.94 102.16 121.94 107.96"/><polygon class="cls-46" points="121.94 113.77 92.83 81.39 92.83 75.59 121.94 107.96 121.94 113.77"/><polygon class="cls-47" points="121.94 119.57 92.83 87.2 92.83 81.39 121.94 113.77 121.94 119.57"/><polygon class="cls-48" points="121.94 125.38 92.83 93 92.83 87.2 121.94 119.57 121.94 125.38"/><polygon class="cls-49" points="121.94 131.18 92.83 98.8 92.83 93 121.94 125.38 121.94 131.18"/><polygon class="cls-50" points="121.94 136.98 92.83 104.61 92.83 98.8 121.94 131.18 121.94 136.98"/><polygon class="cls-51" points="121.94 139.67 120.39 141.06 92.83 110.41 92.83 104.61 121.94 136.98 121.94 139.67"/><polygon class="cls-52" points="120.39 141.06 117.51 143.66 92.83 116.22 92.83 110.41 120.39 141.06"/><polygon class="cls-53" points="117.51 143.66 114.62 146.25 92.83 122.02 92.83 116.22 117.51 143.66"/><polygon class="cls-54" points="114.62 146.25 111.74 148.85 92.83 127.82 92.83 122.02 114.62 146.25"/><polygon class="cls-55" points="111.74 148.85 108.85 151.44 92.83 133.63 92.83 127.82 111.74 148.85"/><polygon class="cls-56" points="108.85 151.44 105.97 154.04 92.83 139.43 92.83 133.63 108.85 151.44"/><polygon class="cls-57" points="105.97 154.04 103.08 156.63 92.83 145.24 92.83 139.43 105.97 154.04"/><polygon class="cls-58" points="103.08 156.63 100.52 158.94 99.93 158.94 92.83 151.04 92.83 145.24 103.08 156.63"/><polygon class="cls-59" points="94.71 158.94 92.83 156.84 92.83 151.04 99.93 158.94 94.71 158.94"/><polygon class="cls-60" points="92.83 156.84 94.71 158.94 92.83 158.94 92.83 156.84"/></g><g class="cls-84"><polygon class="cls-8" points="165.51 5.51 161 0.5 165.51 0.5 165.51 5.51"/><polygon class="cls-20" points="165.51 11.32 155.78 0.5 161 0.5 165.51 5.51 165.51 11.32"/><polygon class="cls-21" points="165.51 17.12 150.57 0.5 155.78 0.5 165.51 11.32 165.51 17.12"/><polygon class="cls-22" points="165.51 22.93 145.35 0.5 150.57 0.5 165.51 17.12 165.51 22.93"/><polygon class="cls-23" points="165.51 28.73 140.13 0.5 145.35 0.5 165.51 22.93 165.51 28.73"/><polygon class="cls-24" points="165.51 34.53 134.91 0.5 140.13 0.5 165.51 28.73 165.51 34.53"/><polygon class="cls-25" points="165.51 40.34 134.34 5.67 134.34 0.5 134.91 0.5 165.51 34.53 165.51 40.34"/><polygon class="cls-26" points="165.51 46.14 134.34 11.47 134.34 5.67 165.51 40.34 165.51 46.14"/><polygon class="cls-27" points="165.51 51.95 134.34 17.28 134.34 11.47 165.51 46.14 165.51 51.95"/><polygon class="cls-28" points="165.51 57.75 134.34 23.08 134.34 17.28 165.51 51.95 165.51 57.75"/><polygon class="cls-29" points="165.51 63.55 134.34 28.89 134.34 23.08 165.51 57.75 165.51 63.55"/><polygon class="cls-30" points="165.51 69.36 134.34 34.69 134.34 28.89 165.51 63.55 165.51 69.36"/><polygon class="cls-31" points="165.51 75.16 134.34 40.49 134.34 34.69 165.51 69.36 165.51 75.16"/><polygon class="cls-32" points="165.51 80.97 134.34 46.3 134.34 40.49 165.51 75.16 165.51 80.97"/><polygon class="cls-33" points="165.51 86.77 134.34 52.1 134.34 46.3 165.51 80.97 165.51 86.77"/><polygon class="cls-34" points="165.51 92.57 134.34 57.91 134.34 52.1 165.51 86.77 165.51 92.57"/><polygon class="cls-35" points="165.51 98.38 134.34 63.71 134.34 57.91 165.51 92.57 165.51 98.38"/><polygon class="cls-36" points="165.51 99.9 163.38 101.81 134.34 69.51 134.34 63.71 165.51 98.38 165.51 99.9"/><polygon class="cls-37" points="163.38 101.81 160.5 104.41 134.34 75.32 134.34 69.51 163.38 101.81"/><polygon class="cls-38" points="160.5 104.41 157.61 107 134.34 81.12 134.34 75.32 160.5 104.41"/><polygon class="cls-39" points="157.61 107 154.72 109.6 134.34 86.92 134.34 81.12 157.61 107"/><polygon class="cls-40" points="154.72 109.6 151.84 112.19 134.34 92.73 134.34 86.92 154.72 109.6"/><polygon class="cls-41" points="151.84 112.19 148.95 114.79 134.34 98.53 134.34 92.73 151.84 112.19"/><polygon class="cls-42" points="148.95 114.79 146.07 117.38 134.34 104.34 134.34 98.53 148.95 114.79"/><polygon class="cls-43" points="146.07 117.38 143.18 119.97 134.34 110.14 134.34 104.34 146.07 117.38"/><polygon class="cls-44" points="143.18 119.97 140.29 122.57 134.34 115.94 134.34 110.14 143.18 119.97"/><polygon class="cls-45" points="140.29 122.57 137.41 125.16 134.34 121.75 134.34 115.94 140.29 122.57"/><polygon class="cls-46" points="137.41 125.16 137.33 125.24 134.34 125.24 134.34 121.75 137.41 125.16"/></g><g class="cls-85"><polygon class="cls-12" points="283.38 72.76 276.28 64.86 283.38 64.86 283.38 72.76"/><polygon class="cls-12" points="283.38 78.56 271.06 64.86 276.28 64.86 283.38 72.76 283.38 78.56"/><polygon class="cls-13" points="283.38 84.37 265.84 64.86 271.06 64.86 283.38 78.56 283.38 84.37"/><polygon class="cls-14" points="283.38 90.17 260.62 64.86 265.84 64.86 283.38 84.37 283.38 90.17"/><polygon class="cls-15" points="283.38 95.97 255.4 64.86 260.62 64.86 283.38 90.17 283.38 95.97"/><polygon class="cls-16" points="283.38 101.78 250.18 64.86 255.4 64.86 283.38 95.97 283.38 101.78"/><polygon class="cls-17" points="283.38 107.58 244.97 64.86 250.18 64.86 283.38 101.78 283.38 107.58"/><polygon class="cls-18" points="283.38 113.39 239.75 64.86 244.97 64.86 283.38 107.58 283.38 113.39"/><polygon class="cls-19" points="283.38 119.19 234.53 64.86 239.75 64.86 283.38 113.39 283.38 119.19"/><polygon class="cls-10" points="283.38 124.99 229.31 64.86 234.53 64.86 283.38 119.19 283.38 124.99"/><polygon class="cls-7" points="283.38 130.8 224.09 64.86 229.31 64.86 283.38 124.99 283.38 130.8"/><polygon class="cls-8" points="283.38 136.6 218.87 64.86 224.09 64.86 283.38 130.8 283.38 136.6"/><polygon class="cls-20" points="283.38 142.41 213.65 64.86 218.87 64.86 283.38 136.6 283.38 142.41"/><polygon class="cls-21" points="283.38 148.21 208.44 64.86 213.65 64.86 283.38 142.41 283.38 148.21"/><polygon class="cls-22" points="283.38 154.01 203.22 64.86 208.44 64.86 283.38 148.21 283.38 154.01"/><polygon class="cls-23" points="283.38 159.82 198 64.86 203.22 64.86 283.38 154.01 283.38 159.82"/><polygon class="cls-24" points="283.38 165.62 192.78 64.86 198 64.86 283.38 159.82 283.38 165.62"/><polygon class="cls-25" points="283.38 171.43 187.56 64.86 192.78 64.86 283.38 165.62 283.38 171.43"/><polygon class="cls-26" points="283.38 177.23 182.34 64.86 187.56 64.86 283.38 171.43 283.38 177.23"/><polygon class="cls-27" points="283.38 183.03 177.12 64.86 182.34 64.86 283.38 177.23 283.38 183.03"/><polygon class="cls-28" points="283.38 188.84 171.9 64.86 177.12 64.86 283.38 183.03 283.38 188.84"/><polygon class="cls-29" points="283.38 194.64 166.69 64.86 171.9 64.86 283.38 188.84 283.38 194.64"/><polygon class="cls-30" points="283.38 200.45 162.82 66.36 164.49 64.86 166.69 64.86 283.38 194.64 283.38 200.45"/><polygon class="cls-31" points="283.38 203.11 281.82 204.51 159.93 68.96 162.82 66.36 283.38 200.45 283.38 203.11"/><rect class="cls-32" x="212.47" y="46.88" width="3.88" height="182.3" transform="translate(-32.3 178.75) rotate(-41.96)"/><rect class="cls-33" x="209.59" y="49.48" width="3.88" height="182.3" transform="translate(-34.77 177.49) rotate(-41.96)"/><rect class="cls-34" x="206.7" y="52.07" width="3.88" height="182.3" transform="translate(-37.25 176.22) rotate(-41.96)"/><rect class="cls-35" x="203.81" y="54.67" width="3.88" height="182.3" transform="translate(-39.72 174.96) rotate(-41.96)"/><rect class="cls-36" x="200.93" y="57.26" width="3.88" height="182.3" transform="translate(-42.2 173.69) rotate(-41.96)"/><rect class="cls-37" x="198.04" y="59.86" width="3.88" height="182.3" transform="translate(-44.67 172.43) rotate(-41.96)"/><rect class="cls-38" x="195.16" y="62.45" width="3.88" height="182.3" transform="translate(-47.14 171.17) rotate(-41.96)"/><rect class="cls-39" x="192.27" y="65.05" width="3.88" height="182.3" transform="translate(-49.62 169.9) rotate(-41.96)"/><rect class="cls-40" x="189.39" y="67.64" width="3.88" height="182.3" transform="translate(-52.09 168.64) rotate(-41.96)"/><rect class="cls-41" x="186.5" y="70.24" width="3.88" height="182.3" transform="translate(-54.57 167.37) rotate(-41.96)"/><rect class="cls-42" x="183.61" y="72.83" width="3.88" height="182.3" transform="translate(-57.04 166.11) rotate(-41.96)"/><rect class="cls-43" x="180.73" y="75.43" width="3.88" height="182.3" transform="translate(-59.52 164.84) rotate(-41.96)"/><rect class="cls-44" x="177.84" y="78.02" width="3.88" height="182.3" transform="translate(-61.99 163.58) rotate(-41.96)"/><rect class="cls-45" x="174.96" y="80.61" width="3.88" height="182.3" transform="translate(-64.47 162.32) rotate(-41.96)"/><rect class="cls-46" x="172.07" y="83.21" width="3.88" height="182.3" transform="translate(-66.94 161.05) rotate(-41.96)"/><rect class="cls-47" x="169.19" y="85.8" width="3.88" height="182.3" transform="translate(-69.42 159.79) rotate(-41.96)"/><rect class="cls-48" x="166.3" y="88.4" width="3.88" height="182.3" transform="translate(-71.89 158.52) rotate(-41.96)"/><rect class="cls-49" x="163.41" y="90.99" width="3.88" height="182.3" transform="translate(-74.37 157.26) rotate(-41.96)"/><rect class="cls-50" x="160.53" y="93.59" width="3.88" height="182.3" transform="translate(-76.84 156) rotate(-41.96)"/><rect class="cls-51" x="157.64" y="96.18" width="3.88" height="182.3" transform="translate(-79.32 154.73) rotate(-41.96)"/><rect class="cls-52" x="154.76" y="98.78" width="3.88" height="182.3" transform="translate(-81.79 153.47) rotate(-41.96)"/><rect class="cls-53" x="151.87" y="101.37" width="3.88" height="182.3" transform="translate(-84.27 152.2) rotate(-41.96)"/><rect class="cls-54" x="148.99" y="103.97" width="3.88" height="182.3" transform="translate(-86.74 150.94) rotate(-41.96)"/><rect class="cls-55" x="146.1" y="106.56" width="3.88" height="182.3" transform="translate(-89.21 149.68) rotate(-41.96)"/><rect class="cls-56" x="143.21" y="109.16" width="3.88" height="182.3" transform="translate(-91.69 148.41) rotate(-41.96)"/><rect class="cls-57" x="140.33" y="111.75" width="3.88" height="182.3" transform="translate(-94.16 147.15) rotate(-41.96)"/><polygon class="cls-58" points="206.79 271.98 205.27 273.34 202.8 273.34 82.02 139.01 84.9 136.42 206.79 271.98"/><polygon class="cls-59" points="197.58 273.34 79.13 141.61 82.02 139.01 202.8 273.34 197.58 273.34"/><polygon class="cls-60" points="192.37 273.34 76.25 144.2 79.13 141.61 197.58 273.34 192.37 273.34"/><polygon class="cls-61" points="187.15 273.34 73.36 146.8 76.25 144.2 192.37 273.34 187.15 273.34"/><polygon class="cls-62" points="181.93 273.34 70.47 149.39 73.36 146.8 187.15 273.34 181.93 273.34"/><polygon class="cls-63" points="176.71 273.34 67.59 151.99 70.47 149.39 181.93 273.34 176.71 273.34"/><polygon class="cls-64" points="171.49 273.34 64.7 154.58 67.59 151.99 176.71 273.34 171.49 273.34"/><polygon class="cls-65" points="166.27 273.34 61.82 157.18 64.7 154.58 171.49 273.34 166.27 273.34"/><polygon class="cls-66" points="161.05 273.34 58.93 159.77 61.82 157.18 166.27 273.34 161.05 273.34"/><polygon class="cls-67" points="155.83 273.34 56.05 162.37 58.93 159.77 161.05 273.34 155.83 273.34"/><polygon class="cls-68" points="150.62 273.34 53.16 164.96 56.05 162.37 155.83 273.34 150.62 273.34"/><polygon class="cls-69" points="145.4 273.34 50.28 167.56 53.16 164.96 150.62 273.34 145.4 273.34"/><polygon class="cls-70" points="140.18 273.34 47.39 170.15 50.28 167.56 145.4 273.34 140.18 273.34"/><polygon class="cls-71" points="134.96 273.34 44.5 172.74 47.39 170.15 140.18 273.34 134.96 273.34"/><polygon class="cls-72" points="129.74 273.34 41.62 175.34 44.5 172.74 134.96 273.34 129.74 273.34"/><polygon class="cls-73" points="124.52 273.34 38.73 177.93 41.62 175.34 129.74 273.34 124.52 273.34"/><polygon class="cls-74" points="119.3 273.34 35.85 180.53 38.73 177.93 124.52 273.34 119.3 273.34"/><polygon class="cls-75" points="114.08 273.34 32.96 183.12 35.85 180.53 119.3 273.34 114.08 273.34"/><polygon class="cls-76" points="108.86 273.34 30.08 185.72 32.96 183.12 114.08 273.34 108.86 273.34"/><polygon class="cls-77" points="103.65 273.34 27.19 188.31 30.08 185.72 108.86 273.34 103.65 273.34"/><polygon class="cls-78" points="98.43 273.34 24.3 190.91 27.19 188.31 103.65 273.34 98.43 273.34"/><polygon class="cls-79" points="93.21 273.34 21.42 193.5 24.3 190.91 98.43 273.34 93.21 273.34"/><polygon class="cls-80" points="87.99 273.34 18.53 196.1 21.42 193.5 93.21 273.34 87.99 273.34"/><polygon class="cls-3" points="82.77 273.34 17.95 201.25 17.95 196.62 18.53 196.1 87.99 273.34 82.77 273.34"/><polygon class="cls-4" points="77.55 273.34 17.95 207.06 17.95 201.25 82.77 273.34 77.55 273.34"/><polygon class="cls-5" points="72.33 273.34 17.95 212.86 17.95 207.06 77.55 273.34 72.33 273.34"/><polygon class="cls-81" points="67.12 273.34 17.95 218.67 17.95 212.86 72.33 273.34 67.12 273.34"/><polygon class="cls-86" points="61.9 273.34 17.95 224.47 17.95 218.67 67.12 273.34 61.9 273.34"/><polygon class="cls-87" points="56.68 273.34 17.95 230.28 17.95 224.47 61.9 273.34 56.68 273.34"/><polygon class="cls-88" points="51.46 273.34 17.95 236.08 17.95 230.28 56.68 273.34 51.46 273.34"/><polygon class="cls-89" points="46.24 273.34 17.95 241.88 17.95 236.08 51.46 273.34 46.24 273.34"/><polygon class="cls-90" points="41.02 273.34 17.95 247.69 17.95 241.88 46.24 273.34 41.02 273.34"/><polygon class="cls-91" points="35.8 273.34 17.95 253.49 17.95 247.69 41.02 273.34 35.8 273.34"/><polygon class="cls-92" points="30.59 273.34 17.95 259.3 17.95 253.49 35.8 273.34 30.59 273.34"/><polygon class="cls-93" points="25.37 273.34 17.95 265.1 17.95 259.3 30.59 273.34 25.37 273.34"/><polygon class="cls-94" points="20.15 273.34 17.95 270.9 17.95 265.1 25.37 273.34 20.15 273.34"/><polygon class="cls-95" points="17.95 270.9 20.15 273.34 17.95 273.34 17.95 270.9"/></g><g class="cls-96"><polygon class="cls-18" points="255.08 8.77 254.78 8.49 255.08 8.49 255.08 8.77"/><polygon class="cls-19" points="255.08 9.11 254.39 8.49 254.78 8.49 255.08 8.77 255.08 9.11"/><polygon class="cls-10" points="255.08 9.45 254 8.49 254.39 8.49 255.08 9.11 255.08 9.45"/><polygon class="cls-7" points="255.08 9.79 253.61 8.49 254 8.49 255.08 9.45 255.08 9.79"/><polygon class="cls-8" points="255.08 10.14 253.22 8.49 253.61 8.49 255.08 9.79 255.08 10.14"/><polygon class="cls-20" points="255.08 10.48 252.83 8.49 253.22 8.49 255.08 10.14 255.08 10.48"/><polygon class="cls-21" points="255.08 10.82 252.44 8.49 252.83 8.49 255.08 10.48 255.08 10.82"/><polygon class="cls-22" points="255.08 11.17 252.05 8.49 252.44 8.49 255.08 10.82 255.08 11.17"/><polygon class="cls-23" points="255.08 11.51 251.67 8.49 252.05 8.49 255.08 11.17 255.08 11.51"/><polygon class="cls-24" points="255.08 11.85 251.28 8.49 251.67 8.49 255.08 11.51 255.08 11.85"/><polygon class="cls-25" points="255.08 12.2 250.89 8.49 251.28 8.49 255.08 11.85 255.08 12.2"/><polygon class="cls-26" points="254.99 12.46 250.5 8.49 250.89 8.49 255.08 12.2 255.08 12.46 254.99 12.46"/><polygon class="cls-27" points="254.6 12.46 250.11 8.49 250.5 8.49 254.99 12.46 254.6 12.46"/><polygon class="cls-28" points="254.21 12.46 249.72 8.49 250.11 8.49 254.6 12.46 254.21 12.46"/><polygon class="cls-29" points="253.83 12.46 249.33 8.49 249.72 8.49 254.21 12.46 253.83 12.46"/><polygon class="cls-30" points="253.44 12.46 249.06 8.6 249.06 8.49 249.33 8.49 253.83 12.46 253.44 12.46"/><polygon class="cls-31" points="253.05 12.46 249.06 8.94 249.06 8.6 253.44 12.46 253.05 12.46"/><polygon class="cls-32" points="252.66 12.46 249.06 9.28 249.06 8.94 253.05 12.46 252.66 12.46"/><polygon class="cls-33" points="252.27 12.46 249.06 9.62 249.06 9.28 252.66 12.46 252.27 12.46"/><polygon class="cls-34" points="251.88 12.46 249.06 9.97 249.06 9.62 252.27 12.46 251.88 12.46"/><polygon class="cls-35" points="251.49 12.46 249.06 10.31 249.06 9.97 251.88 12.46 251.49 12.46"/><polygon class="cls-36" points="251.1 12.46 249.06 10.65 249.06 10.31 251.49 12.46 251.1 12.46"/><polygon class="cls-37" points="250.72 12.46 249.06 10.99 249.06 10.65 251.1 12.46 250.72 12.46"/><polygon class="cls-38" points="250.33 12.46 249.06 11.34 249.06 10.99 250.72 12.46 250.33 12.46"/><polygon class="cls-39" points="249.94 12.46 249.06 11.68 249.06 11.34 250.33 12.46 249.94 12.46"/><polygon class="cls-40" points="249.55 12.46 249.06 12.02 249.06 11.68 249.94 12.46 249.55 12.46"/><polygon class="cls-41" points="249.16 12.46 249.06 12.37 249.06 12.02 249.55 12.46 249.16 12.46"/><polygon class="cls-42" points="249.06 12.37 249.16 12.46 249.06 12.46 249.06 12.37"/><polygon class="cls-12" points="257.12 8.16 255.97 7.14 257.12 7.14 257.12 8.16"/><polygon class="cls-12" points="257.12 8.51 255.58 7.14 255.97 7.14 257.12 8.16 257.12 8.51"/><polygon class="cls-13" points="257.12 8.85 255.19 7.14 255.58 7.14 257.12 8.51 257.12 8.85"/><polygon class="cls-14" points="257.12 9.19 254.8 7.14 255.19 7.14 257.12 8.85 257.12 9.19"/><polygon class="cls-15" points="257.12 9.54 254.41 7.14 254.8 7.14 257.12 9.19 257.12 9.54"/><polygon class="cls-16" points="257.12 9.88 254.02 7.14 254.41 7.14 257.12 9.54 257.12 9.88"/><polygon class="cls-17" points="257.12 10.22 253.63 7.14 254.02 7.14 257.12 9.88 257.12 10.22"/><polygon class="cls-18" points="257.12 10.56 253.25 7.14 253.63 7.14 257.12 10.22 257.12 10.56"/><polygon class="cls-19" points="257.12 10.91 252.86 7.14 253.25 7.14 257.12 10.56 257.12 10.91"/><polygon class="cls-10" points="257.12 11.25 252.47 7.14 252.86 7.14 257.12 10.91 257.12 11.25"/><polygon class="cls-7" points="257.12 11.59 252.08 7.14 252.47 7.14 257.12 11.25 257.12 11.59"/><polygon class="cls-8" points="257.12 11.94 251.69 7.14 252.08 7.14 257.12 11.59 257.12 11.94"/><polygon class="cls-20" points="257.12 12.28 251.3 7.14 251.69 7.14 257.12 11.94 257.12 12.28"/><polygon class="cls-21" points="257.12 12.62 250.91 7.14 251.3 7.14 257.12 12.28 257.12 12.62"/><polygon class="cls-22" points="257.12 12.96 250.52 7.14 250.91 7.14 257.12 12.62 257.12 12.96"/><polygon class="cls-23" points="257.12 13.31 250.13 7.14 250.52 7.14 257.12 12.96 257.12 13.31"/><polygon class="cls-24" points="257.12 13.65 249.75 7.14 250.13 7.14 257.12 13.31 257.12 13.65"/><polygon class="cls-25" points="257.12 13.99 249.36 7.14 249.75 7.14 257.12 13.65 257.12 13.99"/><polygon class="cls-26" points="257.12 14.34 248.97 7.14 249.36 7.14 257.12 13.99 257.12 14.34"/><polygon class="cls-27" points="257.12 14.68 248.58 7.14 248.97 7.14 257.12 14.34 257.12 14.68"/><polygon class="cls-28" points="257.12 15.02 248.19 7.14 248.58 7.14 257.12 14.68 257.12 15.02"/><polygon class="cls-29" points="257.12 15.37 247.8 7.14 248.19 7.14 257.12 15.02 257.12 15.37"/><polygon class="cls-30" points="257.12 15.71 247.49 7.21 247.49 7.14 247.8 7.14 257.12 15.37 257.12 15.71"/><polygon class="cls-31" points="257.12 16.05 247.49 7.55 247.49 7.21 257.12 15.71 257.12 16.05"/><polygon class="cls-32" points="257.12 16.39 247.49 7.89 247.49 7.55 257.12 16.05 257.12 16.39"/><polygon class="cls-33" points="257.12 16.74 247.49 8.24 247.49 7.89 257.12 16.39 257.12 16.74"/><polygon class="cls-34" points="257.12 17.08 247.49 8.58 247.49 8.24 257.12 16.74 257.12 17.08"/><polygon class="cls-35" points="257.12 17.42 247.49 8.92 247.49 8.58 257.12 17.08 257.12 17.42"/><polygon class="cls-36" points="257.12 17.77 247.49 9.27 247.49 8.92 257.12 17.42 257.12 17.77"/><polygon class="cls-37" points="257.12 18.11 247.49 9.61 247.49 9.27 257.12 17.77 257.12 18.11"/><polygon class="cls-38" points="257.12 18.45 247.49 9.95 247.49 9.61 257.12 18.11 257.12 18.45"/><polygon class="cls-39" points="257.06 18.74 247.49 10.29 247.49 9.95 257.12 18.45 257.12 18.74 257.06 18.74"/><polygon class="cls-40" points="256.67 18.74 247.49 10.64 247.49 10.29 257.06 18.74 256.67 18.74"/><polygon class="cls-41" points="256.29 18.74 247.49 10.98 247.49 10.64 256.67 18.74 256.29 18.74"/><polygon class="cls-42" points="255.9 18.74 247.49 11.32 247.49 10.98 256.29 18.74 255.9 18.74"/><polygon class="cls-43" points="255.51 18.74 247.49 11.67 247.49 11.32 255.9 18.74 255.51 18.74"/><polygon class="cls-44" points="255.12 18.74 247.49 12.01 247.49 11.67 255.51 18.74 255.12 18.74"/><polygon class="cls-45" points="254.73 18.74 247.49 12.35 247.49 12.01 255.12 18.74 254.73 18.74"/><polygon class="cls-46" points="254.34 18.74 247.49 12.7 247.49 12.35 254.73 18.74 254.34 18.74"/><polygon class="cls-47" points="253.95 18.74 247.49 13.04 247.49 12.7 254.34 18.74 253.95 18.74"/><polygon class="cls-48" points="253.56 18.74 247.49 13.38 247.49 13.04 253.95 18.74 253.56 18.74"/><polygon class="cls-49" points="253.18 18.74 247.49 13.72 247.49 13.38 253.56 18.74 253.18 18.74"/><polygon class="cls-50" points="252.79 18.74 247.49 14.07 247.49 13.72 253.18 18.74 252.79 18.74"/><polygon class="cls-51" points="252.4 18.74 247.49 14.41 247.49 14.07 252.79 18.74 252.4 18.74"/><polygon class="cls-52" points="252.01 18.74 247.49 14.75 247.49 14.41 252.4 18.74 252.01 18.74"/><polygon class="cls-53" points="251.62 18.74 247.49 15.1 247.49 14.75 252.01 18.74 251.62 18.74"/><polygon class="cls-54" points="251.23 18.74 247.49 15.44 247.49 15.1 251.62 18.74 251.23 18.74"/><polygon class="cls-55" points="250.84 18.74 247.49 15.78 247.49 15.44 251.23 18.74 250.84 18.74"/><polygon class="cls-56" points="250.46 18.74 247.49 16.13 247.49 15.78 250.84 18.74 250.46 18.74"/><polygon class="cls-57" points="250.07 18.74 247.49 16.47 247.49 16.13 250.46 18.74 250.07 18.74"/><polygon class="cls-58" points="249.68 18.74 247.49 16.81 247.49 16.47 250.07 18.74 249.68 18.74"/><polygon class="cls-59" points="249.29 18.74 247.49 17.15 247.49 16.81 249.68 18.74 249.29 18.74"/><polygon class="cls-60" points="248.9 18.74 247.49 17.5 247.49 17.15 249.29 18.74 248.9 18.74"/><polygon class="cls-61" points="248.51 18.74 247.49 17.84 247.49 17.5 248.9 18.74 248.51 18.74"/><polygon class="cls-62" points="248.12 18.74 247.49 18.18 247.49 17.84 248.51 18.74 248.12 18.74"/><polygon class="cls-63" points="247.73 18.74 247.49 18.52 247.49 18.18 248.12 18.74 247.73 18.74"/><polygon class="cls-64" points="247.49 18.52 247.73 18.74 247.49 18.74 247.49 18.52"/></g><g class="cls-97"><rect class="cls-15" x="239.3" y="1" width="0.21" height="25.54"/><rect class="cls-16" x="239.51" y="1" width="0.3" height="25.54"/><rect class="cls-17" x="239.81" y="1" width="0.3" height="25.54"/><rect class="cls-18" x="240.12" y="1" width="0.3" height="25.54"/><rect class="cls-19" x="240.42" y="1" width="0.3" height="25.54"/><rect class="cls-10" x="240.72" y="1" width="0.3" height="25.54"/><rect class="cls-7" x="241.02" y="1" width="0.3" height="25.54"/><rect class="cls-8" x="241.33" y="1" width="0.3" height="25.54"/><rect class="cls-20" x="241.63" y="1" width="0.3" height="25.54"/><rect class="cls-21" x="241.93" y="1" width="0.3" height="25.54"/><rect class="cls-22" x="242.23" y="1" width="0.3" height="25.54"/><rect class="cls-23" x="242.54" y="1" width="0.3" height="25.54"/><rect class="cls-24" x="242.84" y="1" width="0.3" height="25.54"/><rect class="cls-25" x="243.14" y="1" width="0.3" height="25.54"/><rect class="cls-26" x="243.45" y="1" width="0.3" height="25.54"/><rect class="cls-27" x="243.75" y="1" width="0.3" height="25.54"/><rect class="cls-28" x="244.05" y="1" width="0.3" height="25.54"/><rect class="cls-29" x="244.35" y="1" width="0.3" height="25.54"/><rect class="cls-30" x="244.66" y="1" width="0.3" height="25.54"/><rect class="cls-31" x="244.96" y="1" width="0.3" height="25.54"/><rect class="cls-32" x="245.26" y="1" width="0.3" height="25.54"/><rect class="cls-33" x="245.56" y="1" width="0.3" height="25.54"/><rect class="cls-34" x="245.87" y="1" width="0.3" height="25.54"/><rect class="cls-35" x="246.17" y="1" width="0.3" height="25.54"/><rect class="cls-36" x="246.47" y="1" width="0.3" height="25.54"/><rect class="cls-37" x="246.77" y="1" width="0.3" height="25.54"/><rect class="cls-38" x="247.08" y="1" width="0.3" height="25.54"/><rect class="cls-39" x="247.38" y="1" width="0.3" height="25.54"/><rect class="cls-40" x="247.68" y="1" width="0.3" height="25.54"/><rect class="cls-41" x="247.98" y="1" width="0.3" height="25.54"/><rect class="cls-42" x="248.29" y="1" width="0.3" height="25.54"/><rect class="cls-43" x="248.59" y="1" width="0.3" height="25.54"/><rect class="cls-44" x="248.89" y="1" width="0.3" height="25.54"/><rect class="cls-45" x="249.2" y="1" width="0.3" height="25.54"/><rect class="cls-46" x="249.5" y="1" width="0.3" height="25.54"/><rect class="cls-47" x="249.8" y="1" width="0.3" height="25.54"/><rect class="cls-48" x="250.1" y="1" width="0.3" height="25.54"/><rect class="cls-49" x="250.41" y="1" width="0.3" height="25.54"/><rect class="cls-50" x="250.71" y="1" width="0.3" height="25.54"/><rect class="cls-51" x="251.01" y="1" width="0.3" height="25.54"/><rect class="cls-52" x="251.31" y="1" width="0.3" height="25.54"/><rect class="cls-53" x="251.62" y="1" width="0.3" height="25.54"/><rect class="cls-54" x="251.92" y="1" width="0.3" height="25.54"/><rect class="cls-55" x="252.22" y="1" width="0.3" height="25.54"/><rect class="cls-56" x="252.52" y="1" width="0.3" height="25.54"/><rect class="cls-57" x="252.83" y="1" width="0.3" height="25.54"/><rect class="cls-58" x="253.13" y="1" width="0.3" height="25.54"/><rect class="cls-59" x="253.43" y="1" width="0.3" height="25.54"/><rect class="cls-60" x="253.73" y="1" width="0.3" height="25.54"/><rect class="cls-61" x="254.04" y="1" width="0.3" height="25.54"/><rect class="cls-62" x="254.34" y="1" width="0.3" height="25.54"/><rect class="cls-63" x="254.64" y="1" width="0.3" height="25.54"/><rect class="cls-64" x="254.94" y="1" width="0.3" height="25.54"/><rect class="cls-65" x="255.25" y="1" width="0.3" height="25.54"/><rect class="cls-66" x="255.55" y="1" width="0.3" height="25.54"/><rect class="cls-67" x="255.85" y="1" width="0.3" height="25.54"/><rect class="cls-68" x="256.16" y="1" width="0.3" height="25.54"/><rect class="cls-69" x="256.46" y="1" width="0.3" height="25.54"/><rect class="cls-70" x="256.76" y="1" width="0.3" height="25.54"/><rect class="cls-71" x="257.06" y="1" width="0.3" height="25.54"/><rect class="cls-72" x="257.37" y="1" width="0.3" height="25.54"/><rect class="cls-73" x="257.67" y="1" width="0.3" height="25.54"/><rect class="cls-74" x="257.97" y="1" width="0.3" height="25.54"/><rect class="cls-75" x="258.27" y="1" width="0.3" height="25.54"/><rect class="cls-76" x="258.58" y="1" width="0.3" height="25.54"/><rect class="cls-77" x="258.88" y="1" width="0.3" height="25.54"/><rect class="cls-78" x="259.18" y="1" width="0.3" height="25.54"/><rect class="cls-79" x="259.48" y="1" width="0.3" height="25.54"/><rect class="cls-80" x="259.79" y="1" width="0.3" height="25.54"/><rect class="cls-3" x="260.09" y="1" width="0.3" height="25.54"/><rect class="cls-4" x="260.39" y="1" width="0.3" height="25.54"/><rect class="cls-5" x="260.69" y="1" width="0.3" height="25.54"/><rect class="cls-81" x="261" y="1" width="0.3" height="25.54"/><rect class="cls-86" x="261.3" y="1" width="0.3" height="25.54"/><rect class="cls-87" x="261.6" y="1" width="0.3" height="25.54"/><rect class="cls-88" x="261.91" y="1" width="0.3" height="25.54"/><rect class="cls-89" x="262.21" y="1" width="0.3" height="25.54"/><rect class="cls-90" x="262.51" y="1" width="0.3" height="25.54"/><rect class="cls-91" x="262.81" y="1" width="0.3" height="25.54"/><rect class="cls-92" x="263.12" y="1" width="0.3" height="25.54"/><rect class="cls-93" x="263.42" y="1" width="0.3" height="25.54"/><rect class="cls-94" x="263.72" y="1" width="0.3" height="25.54"/><rect class="cls-95" x="264.02" y="1" width="0.3" height="25.54"/><rect class="cls-98" x="264.33" y="1" width="0.3" height="25.54"/><rect class="cls-99" x="264.63" y="1" width="0.21" height="25.54"/><rect class="cls-12" x="238.3" height="27.54"/><rect class="cls-12" x="238.3" width="0.3" height="27.54"/><rect class="cls-13" x="238.6" width="0.3" height="27.54"/><rect class="cls-14" x="238.91" width="0.3" height="27.54"/><rect class="cls-15" x="239.21" width="0.3" height="27.54"/><rect class="cls-16" x="239.51" width="0.3" height="27.54"/><rect class="cls-17" x="239.81" width="0.3" height="27.54"/><rect class="cls-18" x="240.12" width="0.3" height="27.54"/><rect class="cls-19" x="240.42" width="0.3" height="27.54"/><rect class="cls-10" x="240.72" width="0.3" height="27.54"/><rect class="cls-7" x="241.02" width="0.3" height="27.54"/><rect class="cls-8" x="241.33" width="0.3" height="27.54"/><rect class="cls-20" x="241.63" width="0.3" height="27.54"/><rect class="cls-21" x="241.93" width="0.3" height="27.54"/><rect class="cls-22" x="242.23" width="0.3" height="27.54"/><rect class="cls-23" x="242.54" width="0.3" height="27.54"/><rect class="cls-24" x="242.84" width="0.3" height="27.54"/><rect class="cls-25" x="243.14" width="0.3" height="27.54"/><rect class="cls-26" x="243.45" width="0.3" height="27.54"/><rect class="cls-27" x="243.75" width="0.3" height="27.54"/><rect class="cls-28" x="244.05" width="0.3" height="27.54"/><rect class="cls-29" x="244.35" width="0.3" height="27.54"/><rect class="cls-30" x="244.66" width="0.3" height="27.54"/><rect class="cls-31" x="244.96" width="0.3" height="27.54"/><rect class="cls-32" x="245.26" width="0.3" height="27.54"/><rect class="cls-33" x="245.56" width="0.3" height="27.54"/><rect class="cls-34" x="245.87" width="0.3" height="27.54"/><rect class="cls-35" x="246.17" width="0.3" height="27.54"/><rect class="cls-36" x="246.47" width="0.3" height="27.54"/><rect class="cls-37" x="246.77" width="0.3" height="27.54"/><rect class="cls-38" x="247.08" width="0.3" height="27.54"/><rect class="cls-39" x="247.38" width="0.3" height="27.54"/><rect class="cls-40" x="247.68" width="0.3" height="27.54"/><rect class="cls-41" x="247.98" width="0.3" height="27.54"/><rect class="cls-42" x="248.29" width="0.3" height="27.54"/><rect class="cls-43" x="248.59" width="0.3" height="27.54"/><rect class="cls-44" x="248.89" width="0.3" height="27.54"/><rect class="cls-45" x="249.2" width="0.3" height="27.54"/><rect class="cls-46" x="249.5" width="0.3" height="27.54"/><rect class="cls-47" x="249.8" width="0.3" height="27.54"/><rect class="cls-48" x="250.1" width="0.3" height="27.54"/><rect class="cls-49" x="250.41" width="0.3" height="27.54"/><rect class="cls-50" x="250.71" width="0.3" height="27.54"/><rect class="cls-51" x="251.01" width="0.3" height="27.54"/><rect class="cls-52" x="251.31" width="0.3" height="27.54"/><rect class="cls-53" x="251.62" width="0.3" height="27.54"/><rect class="cls-54" x="251.92" width="0.3" height="27.54"/><rect class="cls-55" x="252.22" width="0.3" height="27.54"/><rect class="cls-56" x="252.52" width="0.3" height="27.54"/><rect class="cls-57" x="252.83" width="0.3" height="27.54"/><rect class="cls-58" x="253.13" width="0.3" height="27.54"/><rect class="cls-59" x="253.43" width="0.3" height="27.54"/><rect class="cls-60" x="253.73" width="0.3" height="27.54"/><rect class="cls-61" x="254.04" width="0.3" height="27.54"/><rect class="cls-62" x="254.34" width="0.3" height="27.54"/><rect class="cls-63" x="254.64" width="0.3" height="27.54"/><rect class="cls-64" x="254.94" width="0.3" height="27.54"/><rect class="cls-65" x="255.25" width="0.3" height="27.54"/><rect class="cls-66" x="255.55" width="0.3" height="27.54"/><rect class="cls-67" x="255.85" width="0.3" height="27.54"/><rect class="cls-68" x="256.16" width="0.3" height="27.54"/><rect class="cls-69" x="256.46" width="0.3" height="27.54"/><rect class="cls-70" x="256.76" width="0.3" height="27.54"/><rect class="cls-71" x="257.06" width="0.3" height="27.54"/><rect class="cls-72" x="257.37" width="0.3" height="27.54"/><rect class="cls-73" x="257.67" width="0.3" height="27.54"/><rect class="cls-74" x="257.97" width="0.3" height="27.54"/><rect class="cls-75" x="258.27" width="0.3" height="27.54"/><rect class="cls-76" x="258.58" width="0.3" height="27.54"/><rect class="cls-77" x="258.88" width="0.3" height="27.54"/><rect class="cls-78" x="259.18" width="0.3" height="27.54"/><rect class="cls-79" x="259.48" width="0.3" height="27.54"/><rect class="cls-80" x="259.79" width="0.3" height="27.54"/><rect class="cls-3" x="260.09" width="0.3" height="27.54"/><rect class="cls-4" x="260.39" width="0.3" height="27.54"/><rect class="cls-5" x="260.69" width="0.3" height="27.54"/><rect class="cls-81" x="261" width="0.3" height="27.54"/><rect class="cls-86" x="261.3" width="0.3" height="27.54"/><rect class="cls-87" x="261.6" width="0.3" height="27.54"/><rect class="cls-88" x="261.91" width="0.3" height="27.54"/><rect class="cls-89" x="262.21" width="0.3" height="27.54"/><rect class="cls-90" x="262.51" width="0.3" height="27.54"/><rect class="cls-91" x="262.81" width="0.3" height="27.54"/><rect class="cls-92" x="263.12" width="0.3" height="27.54"/><rect class="cls-93" x="263.42" width="0.3" height="27.54"/><rect class="cls-94" x="263.72" width="0.3" height="27.54"/><rect class="cls-95" x="264.02" width="0.3" height="27.54"/><rect class="cls-98" x="264.33" width="0.3" height="27.54"/><rect class="cls-99" x="264.63" width="0.3" height="27.54"/><rect class="cls-100" x="264.93" width="0.3" height="27.54"/><rect class="cls-101" x="265.23" width="0.3" height="27.54"/><rect class="cls-102" x="265.54" width="0.3" height="27.54"/><rect class="cls-102" x="265.84" height="27.54"/></g></g></g></svg>